<?xml version="1.0" encoding="iso-8859-1"?>
<!-- Generator: Adobe Illustrator 19.0.0, SVG Export Plug-In . SVG Version: 6.00 Build 0)  -->
<svg version="1.1" id="Capa_1" xmlns="http://www.w3.org/2000/svg" xmlns:xlink="http://www.w3.org/1999/xlink" x="0px" y="0px"
	 viewBox="0 0 512 512" style="enable-background:new 0 0 512 512;" xml:space="preserve">
<g>
	<g>
		<path d="M338.369,89.002H83.989C37.678,89.002,0,126.68,0,172.993v254.379c0,46.312,37.678,83.99,83.989,83.99h254.38
			c46.311,0,83.989-37.678,83.989-83.99V172.993C422.358,126.68,384.68,89.002,338.369,89.002z M392.389,427.371
			c0,29.787-24.234,54.021-54.02,54.021H83.989c-29.786-0.001-54.02-24.234-54.02-54.021V172.993
			c0-29.787,24.234-54.021,54.02-54.021h254.38c29.786,0,54.02,24.234,54.02,54.021V427.371z"/>
	</g>
</g>
<g>
	<g>
		<path d="M173.012,296.58c12.102-5.681,19.265-21.488,19.265-41.001c0-32.849-22.229-44.21-52.115-44.21
			c-41.741,0-54.091,25.439-54.091,42.977c0,10.374,2.224,13.831,16.548,13.831c11.855,0,15.313-4.94,15.313-12.35
			c0-9.88,5.928-16.548,21.983-16.548c13.338,0,21.735,5.433,21.735,21.735c0,21.241-10.374,24.205-22.723,24.205
			c-7.163,0-9.633,6.422-9.633,12.596c0,6.422,2.471,12.596,9.633,12.596c15.807,0,27.169,5.187,27.169,23.463v4.693
			c0,18.771-7.904,26.675-26.428,26.675c-15.807,0-25.686-6.916-25.686-18.03c0-7.904-3.458-11.362-16.548-11.362
			c-11.115,0-15.314,2.717-15.314,12.596c0,20.006,16.302,44.953,56.808,44.953c32.603,0,59.277-15.067,59.277-54.832v-4.693
			C198.203,313.375,187.583,302.26,173.012,296.58z"/>
	</g>
</g>
<g>
	<g>
		<path d="M278.475,211.369h-43.718c-8.398,0-14.079,4.692-14.079,9.879v160.79c0,5.187,5.681,9.88,14.079,9.88h43.718
			c32.602,0,58.043-15.314,58.043-56.561v-67.428C336.517,226.683,311.078,211.369,278.475,211.369z M304.409,335.357
			c0,19.266-9.633,28.404-25.934,28.404h-25.687V239.526h25.687c16.301,0,25.934,9.139,25.934,28.403V335.357z"/>
	</g>
</g>
<g>
	<g>
		<path d="M362.218,0.638H156.27c-8.276,0-14.985,6.709-14.985,14.985c0,8.276,6.709,14.985,14.985,14.985h205.948
			c66.064,0,119.812,53.747,119.812,119.811v205.949c0,8.276,6.709,14.985,14.985,14.985c8.276,0,14.985-6.709,14.985-14.985
			V150.419C512,67.83,444.808,0.638,362.218,0.638z"/>
	</g>
</g>
<g>
</g>
<g>
</g>
<g>
</g>
<g>
</g>
<g>
</g>
<g>
</g>
<g>
</g>
<g>
</g>
<g>
</g>
<g>
</g>
<g>
</g>
<g>
</g>
<g>
</g>
<g>
</g>
<g>
</g>
</svg>
